<?xml version="1.0" encoding="UTF-8" standalone="no"?>
<!-- Uploaded to: SVG Repo, www.svgrepo.com, Generator: SVG Repo Mixer Tools -->

<svg
   fill="#000000"
   width="800px"
   height="800px"
   viewBox="0 0 32 32"
   version="1.1"
   id="svg1"
   sodipodi:docname="brightness.svg"
   inkscape:version="1.4.1 (93de688d07, 2025-03-30)"
   xmlns:inkscape="http://www.inkscape.org/namespaces/inkscape"
   xmlns:sodipodi="http://sodipodi.sourceforge.net/DTD/sodipodi-0.dtd"
   xmlns="http://www.w3.org/2000/svg"
   xmlns:svg="http://www.w3.org/2000/svg"
   xmlns:rdf="http://www.w3.org/1999/02/22-rdf-syntax-ns#"
   xmlns:cc="http://creativecommons.org/ns#"
   xmlns:dc="http://purl.org/dc/elements/1.1/">
  <defs
     id="defs1" />
  <sodipodi:namedview
     id="namedview1"
     pagecolor="#ffffff"
     bordercolor="#000000"
     borderopacity="0.25"
     inkscape:showpageshadow="2"
     inkscape:pageopacity="0.0"
     inkscape:pagecheckerboard="0"
     inkscape:deskcolor="#d1d1d1"
     inkscape:zoom="0.99177745"
     inkscape:cx="383.15047"
     inkscape:cy="509.18681"
     inkscape:window-width="2256"
     inkscape:window-height="1504"
     inkscape:window-x="0"
     inkscape:window-y="0"
     inkscape:window-maximized="1"
     inkscape:current-layer="svg1" />
  <title
     id="title1">brightness</title>
  <path
     d="m 0,16 c 0,0.554667 0.192,1.034667 0.576,1.44 0.384,0.405333 0.864,0.597333 1.44,0.576 H 4 c 0.5546667,0 1.024,-0.192 1.408,-0.576 C 5.792,17.056 5.9946667,16.576 6.016,16 6.0373333,15.424 5.8346667,14.954667 5.408,14.592 4.9813333,14.229333 4.512,14.037333 4,14.016 H 2.016 c -0.5546667,0 -1.03466667,0.192 -1.44,0.576 C 0.17066667,14.976 -0.02133333,15.445333 0,16 Z m 4.096,9.888 c 0,0.554667 0.2026667,1.034667 0.608,1.44 0.4053333,0.405333 0.8746667,0.597333 1.408,0.576 0.5333333,-0.02133 1.0026667,-0.213333 1.408,-0.576 L 8.928,25.92 c 0.4053333,-0.405333 0.608,-0.874667 0.608,-1.408 0,-0.533333 -0.2026667,-1.002667 -0.608,-1.408 -0.4053333,-0.405333 -0.8746667,-0.608 -1.408,-0.608 -0.5333333,0 -1.0026667,0.202667 -1.408,0.608 l -1.408,1.408 c -0.4053333,0.384 -0.608,0.842667 -0.608,1.376 z m 0,-19.776 c 0,0.5546667 0.2026667,1.024 0.608,1.408 L 6.112,8.928 C 6.496,9.312 6.9653333,9.504 7.52,9.504 8.0746667,9.504 8.544,9.312 8.928,8.928 9.312,8.544 9.5146667,8.0746667 9.536,7.52 9.5573333,6.9653333 9.3546667,6.496 8.928,6.112 L 7.52,4.704 C 7.136,4.2986667 6.6666667,4.096 6.112,4.096 5.5573333,4.096 5.088,4.2986667 4.704,4.704 4.32,5.1093333 4.1173333,5.5786667 4.096,6.112 Z M 8,16 c 0,2.218667 0.7786667,4.106667 2.336,5.664 C 11.893333,23.221333 13.781333,24 16,24 18.218667,24 20.106667,23.221333 21.664,21.664 23.221333,20.106667 24,18.218667 24,16 24,13.781333 23.221333,11.904 21.664,10.368 20.106667,8.832 18.218667,8.0426667 16,8 13.781333,7.9573333 11.893333,8.7466667 10.336,10.368 8.7786667,11.989333 8,13.866667 8,16 Z m 6.016,12 v 2.016 c 0,0.554667 0.192,1.024 0.576,1.408 C 14.976,31.808 15.445333,32 16,32 c 0.554667,0 1.024,-0.192 1.408,-0.576 0.384,-0.384 0.586667,-0.853333 0.608,-1.408 V 28 c 0,-0.554667 -0.202667,-1.024 -0.608,-1.408 -0.405333,-0.384 -0.874667,-0.576 -1.408,-0.576 -0.533333,0 -1.002667,0.192 -1.408,0.576 -0.405333,0.384 -0.597333,0.853333 -0.576,1.408 z m 0,-24 c 0,0.5546667 0.192,1.0346667 0.576,1.44 C 14.976,5.8453333 15.445333,6.0373333 16,6.016 16.554667,5.9946667 17.024,5.8026667 17.408,5.44 17.792,5.0773333 17.994667,4.5973333 18.016,4 V 2.016 C 18.016,1.4613333 17.813333,0.992 17.408,0.608 17.002667,0.224 16.533333,0.02133333 16,0 15.466667,-0.02133333 14.997333,0.18133333 14.592,0.608 14.186667,1.0346667 13.994667,1.504 14.016,2.016 Z m 8.48,20.512 c 0,0.533333 0.192,1.002667 0.576,1.408 l 1.408,1.408 c 0.384,0.384 0.853333,0.576 1.408,0.576 0.554667,0 1.034667,-0.192 1.44,-0.576 0.405333,-0.384 0.597333,-0.864 0.576,-1.44 -0.02133,-0.576 -0.213333,-1.034667 -0.576,-1.376 L 25.92,23.104 c -0.405333,-0.405333 -0.885333,-0.608 -1.44,-0.608 -0.554667,0 -1.024,0.202667 -1.408,0.608 -0.384,0.405333 -0.576,0.874667 -0.576,1.408 z m 0,-16.992 c 0,0.5546667 0.192,1.024 0.576,1.408 0.384,0.384 0.853333,0.576 1.408,0.576 0.554667,0 1.034667,-0.192 1.44,-0.576 L 27.328,7.52 C 27.712,7.136 27.904,6.6666667 27.904,6.112 27.904,5.5573333 27.712,5.088 27.328,4.704 26.944,4.32 26.464,4.1173333 25.888,4.096 25.312,4.0746667 24.842667,4.2773333 24.48,4.704 L 23.072,6.112 C 22.688,6.496 22.496,6.9653333 22.496,7.52 Z m 3.52,8.48 c 0,0.554667 0.192,1.034667 0.576,1.44 0.384,0.405333 0.853333,0.597333 1.408,0.576 h 2.016 c 0.533333,0 1.002667,-0.192 1.408,-0.576 C 31.829333,17.056 32.021333,16.576 32,16 31.978667,15.424 31.786667,14.954667 31.424,14.592 31.061333,14.229333 30.592,14.037333 30.016,14.016 H 28 c -0.554667,0 -1.024,0.192 -1.408,0.576 -0.384,0.384 -0.576,0.853333 -0.576,1.408 z"
     id="path1"
     style="fill:#ffe570;fill-opacity:1"
     sodipodi:nodetypes="cscsssscsscssscssssscsccssssccsscssssssssscsssscsssscsssscsssscsscsssscssssssscsssscsssscsssscsss" />
  <metadata
     id="metadata2">
    <rdf:RDF>
      <cc:Work
         rdf:about="">
        <dc:title>brightness</dc:title>
      </cc:Work>
    </rdf:RDF>
  </metadata>
</svg>
