<?xml version="1.0" encoding="UTF-8" standalone="no"?>
<!-- Uploaded to: SVG Repo, www.svgrepo.com, Generator: SVG Repo Mixer Tools -->

<svg
   width="800px"
   height="800px"
   viewBox="0 0 24 24"
   fill="none"
   version="1.1"
   id="svg1"
   xmlns="http://www.w3.org/2000/svg"
   xmlns:svg="http://www.w3.org/2000/svg">
  <defs
     id="defs1" />
  <path
     d="M19.7479 4.99993C21.1652 6.97016 22 9.38756 22 11.9999C22 14.6123 21.1652 17.0297 19.7479 18.9999M15.7453 7.99993C16.5362 9.13376 17 10.5127 17 11.9999C17 13.4872 16.5362 14.8661 15.7453 15.9999M9.63432 5.36561L6.46863 8.5313C6.29568 8.70425 6.2092 8.79073 6.10828 8.85257C6.01881 8.9074 5.92127 8.9478 5.81923 8.9723C5.70414 8.99993 5.58185 8.99993 5.33726 8.99993H3.6C3.03995 8.99993 2.75992 8.99993 2.54601 9.10892C2.35785 9.20479 2.20487 9.35777 2.10899 9.54594C2 9.75985 2 10.0399 2 10.5999V13.3999C2 13.96 2 14.24 2.10899 14.4539C2.20487 14.6421 2.35785 14.7951 2.54601 14.8909C2.75992 14.9999 3.03995 14.9999 3.6 14.9999H5.33726C5.58185 14.9999 5.70414 14.9999 5.81923 15.0276C5.92127 15.0521 6.01881 15.0925 6.10828 15.1473C6.2092 15.2091 6.29568 15.2956 6.46863 15.4686L9.63431 18.6342C10.0627 19.0626 10.2769 19.2768 10.4608 19.2913C10.6203 19.3038 10.7763 19.2392 10.8802 19.1175C11 18.9773 11 18.6744 11 18.0686V5.9313C11 5.32548 11 5.02257 10.8802 4.88231C10.7763 4.76061 10.6203 4.69602 10.4608 4.70858C10.2769 4.72305 10.0627 4.93724 9.63432 5.36561Z"
     stroke="#000000"
     stroke-width="2"
     stroke-linecap="round"
     stroke-linejoin="round"
     id="path1"
     style="stroke-width:2.00001;stroke-dasharray:none;stroke:#83e9fd;stroke-opacity:1" />
  <path
     d="m 10.520332,4.7074219 c -0.01973,-8.018e-4 -0.03959,-3.982e-4 -0.05953,0.00117 -0.1839,0.01447 -0.398085,0.2286418 -0.8264651,0.6570118 L 6.4686328,8.5313086 c -0.17295,0.17295 -0.2594315,0.2594295 -0.3603516,0.3212695 -0.08947,0.05483 -0.1870029,0.095207 -0.2890429,0.1197071 -0.11509,0.02763 -0.2374022,0.027656 -0.4819922,0.027656 H 3.6 c -0.56005,0 -0.8400744,-5.6e-6 -1.0539844,0.1089844 -0.18816,0.09587 -0.3411708,0.2488222 -0.4370508,0.4369922 -0.10899,0.21391 -0.1089843,0.493984 -0.1089843,1.053984 v 2.80002 c 0,0.5601 -5.7e-6,0.840084 0.1089843,1.053984 0.09588,0.1882 0.2488908,0.341192 0.4370508,0.436992 0.21391,0.109 0.4939344,0.108985 1.0539844,0.108985 h 1.7372461 c 0.24459,0 0.3669022,1.5e-5 0.4819922,0.02771 0.10204,0.0245 0.1995729,0.06491 0.2890429,0.119707 0.1009201,0.0618 0.1874016,0.148269 0.3603516,0.321269 l 3.1657031,3.165645 c 0.4283901,0.4284 0.6425651,0.64257 0.8264651,0.65707 0.1595,0.0125 0.315514,-0.05209 0.419414,-0.173789 0.1198,-0.1402 0.119765,-0.443087 0.119765,-1.048887 V 5.9313281 c 0,-0.60582 3.5e-5,-0.9087439 -0.119765,-1.0490039 -0.09091,-0.1064875 -0.221751,-0.1692897 -0.359883,-0.1749023 z"
     style="fill:#83e9fd;stroke:#83e9fd;stroke-width:2.00001;stroke-opacity:1;fill-opacity:1"
     id="path3" />
</svg>
