<?xml version="1.0" encoding="UTF-8" standalone="no"?>
<!-- Uploaded to: SVG Repo, www.svgrepo.com, Generator: SVG Repo Mixer Tools -->

<svg
   width="800px"
   height="800px"
   viewBox="0 0 16 16"
   fill="none"
   version="1.1"
   id="svg2"
   sodipodi:docname="volume_medium.svg"
   inkscape:version="1.4.1 (93de688d07, 2025-03-30)"
   xmlns:inkscape="http://www.inkscape.org/namespaces/inkscape"
   xmlns:sodipodi="http://sodipodi.sourceforge.net/DTD/sodipodi-0.dtd"
   xmlns="http://www.w3.org/2000/svg"
   xmlns:svg="http://www.w3.org/2000/svg">
  <defs
     id="defs2" />
  <sodipodi:namedview
     id="namedview2"
     pagecolor="#ffffff"
     bordercolor="#000000"
     borderopacity="0.25"
     inkscape:showpageshadow="2"
     inkscape:pageopacity="0.0"
     inkscape:pagecheckerboard="0"
     inkscape:deskcolor="#d1d1d1"
     inkscape:zoom="1.51"
     inkscape:cx="400"
     inkscape:cy="400"
     inkscape:window-width="2256"
     inkscape:window-height="1504"
     inkscape:window-x="0"
     inkscape:window-y="0"
     inkscape:window-maximized="1"
     inkscape:current-layer="svg2" />
  <g
     fill="#000000"
     id="g2"
     style="fill:#83e9fd;fill-opacity:1">
    <path
       fill-rule="evenodd"
       d="M9 3.71a1.25 1.25 0 00-1.967-1.024L3.728 5H1.25C.56 5 0 5.56 0 6.25v3.5C0 10.44.56 11 1.25 11h2.478l3.305 2.314A1.25 1.25 0 009 12.29V3.71zM4.524 6.274L7.5 4.19v7.62L4.524 9.725a1.25 1.25 0 00-.717-.226H1.5v-3h2.307c.256 0 .506-.079.717-.226z"
       clip-rule="evenodd"
       id="path1"
       style="fill:#83e9fd;fill-opacity:1" />
    <path
       d="M11.761 5.201A.75.75 0 0010.74 6.3c.494.46.761 1.074.761 1.701s-.267 1.24-.761 1.701A.75.75 0 1011.76 10.8 3.826 3.826 0 0013 8c0-1.06-.453-2.066-1.239-2.799z"
       id="path2"
       style="fill:#83e9fd;fill-opacity:1" />
  </g>
  <path
     d="M 7.5,4.19 4.5239844,6.2739844 v -9.766e-4 c -0.211,0.147 -0.4609922,0.2259766 -0.7169922,0.2259766 H 1.5 v 3 H 3.8069922 A 1.25,1.25 0 0 1 4.5239844,9.725 L 7.5,11.81 Z"
     style="fill:#83e9fd;stroke:#83e9fd;stroke-width:1.33334"
     id="path5" />
</svg>
